<?xml version="1.0" encoding="utf-8"?>
<svg viewBox="0 0 500 500" xmlns="http://www.w3.org/2000/svg">
  <path d="M 180.355 174.438 L 189.89 167.568 C 186.9 163.441 181.58 161.728 176.73 163.274 C 171.883 164.848 168.588 169.349 168.588 174.438 L 180.355 174.438 Z M 250.975 397.245 C 166.469 397.245 97.966 328.996 97.966 244.798 L 74.425 244.798 C 74.425 341.943 153.474 420.699 250.975 420.699 L 250.975 397.245 Z M 403.989 244.798 C 403.989 328.996 335.486 397.245 250.975 397.245 L 250.975 420.699 C 348.479 420.699 427.526 341.943 427.526 244.798 L 403.989 244.798 Z M 250.975 92.352 C 335.486 92.352 403.989 160.6 403.989 244.798 L 427.526 244.798 C 427.526 147.654 348.479 68.898 250.975 68.898 L 250.975 92.352 Z M 250.975 68.898 C 153.474 68.898 74.425 147.654 74.425 244.798 L 97.966 244.798 C 97.966 160.6 166.469 92.352 250.975 92.352 L 250.975 68.898 Z M 192.125 350.339 L 192.125 174.438 L 168.588 174.438 L 168.588 350.339 L 192.125 350.339 Z M 170.8 181.31 L 323.833 392.392 L 342.9 378.649 L 189.89 167.568 L 170.8 181.31 Z M 309.826 162.712 L 309.826 303.432 L 333.368 303.432 L 333.368 162.712 L 309.826 162.712 Z" style="fill: rgb(213, 213, 213);"/>
</svg>